<mxfile host="app.diagrams.net" modified="2020-04-19T14:00:39.049Z" agent="5.0 (Macintosh; Intel Mac OS X 10_15_3) AppleWebKit/537.36 (KHTML, like Gecko) Chrome/80.0.3987.163 Safari/537.36" etag="Dr7172Yrhpo2u8Gm1gSW" version="12.9.14" type="github" pages="2">
  <diagram id="auQ-xZPgcsfXKyRMp1jr" name="第 1 页">
    <mxGraphModel dx="744" dy="591" grid="1" gridSize="10" guides="1" tooltips="1" connect="1" arrows="1" fold="1" page="1" pageScale="1" pageWidth="827" pageHeight="1169" math="0" shadow="0">
      <root>
        <mxCell id="0" />
        <mxCell id="1" parent="0" />
        <mxCell id="wsR6Gxox6wflihYimQEe-2" value="Reconnect" style="rounded=0;whiteSpace=wrap;html=1;" parent="1" vertex="1">
          <mxGeometry x="60" y="280" width="110" height="40" as="geometry" />
        </mxCell>
        <mxCell id="wsR6Gxox6wflihYimQEe-3" value="Mechanism" style="text;html=1;strokeColor=none;fillColor=none;align=center;verticalAlign=middle;whiteSpace=wrap;rounded=0;" parent="1" vertex="1">
          <mxGeometry x="154" y="230" width="40" height="20" as="geometry" />
        </mxCell>
        <mxCell id="wsR6Gxox6wflihYimQEe-5" value="Retry" style="rounded=0;whiteSpace=wrap;html=1;" parent="1" vertex="1">
          <mxGeometry x="190" y="280" width="110" height="40" as="geometry" />
        </mxCell>
        <mxCell id="wsR6Gxox6wflihYimQEe-6" value="Ratelimit" style="rounded=0;whiteSpace=wrap;html=1;" parent="1" vertex="1">
          <mxGeometry x="60" y="330" width="110" height="40" as="geometry" />
        </mxCell>
        <mxCell id="wsR6Gxox6wflihYimQEe-8" value="Codec(Protocol)" style="rounded=0;whiteSpace=wrap;html=1;" parent="1" vertex="1">
          <mxGeometry x="190" y="330" width="110" height="40" as="geometry" />
        </mxCell>
        <mxCell id="wsR6Gxox6wflihYimQEe-9" value="Errors" style="rounded=0;whiteSpace=wrap;html=1;" parent="1" vertex="1">
          <mxGeometry x="60" y="380" width="110" height="40" as="geometry" />
        </mxCell>
        <mxCell id="wsR6Gxox6wflihYimQEe-10" value="Auth" style="rounded=0;whiteSpace=wrap;html=1;" parent="1" vertex="1">
          <mxGeometry x="190" y="380" width="110" height="40" as="geometry" />
        </mxCell>
        <mxCell id="wsR6Gxox6wflihYimQEe-12" value="Timeout" style="rounded=0;whiteSpace=wrap;html=1;" parent="1" vertex="1">
          <mxGeometry x="320" y="280" width="110" height="40" as="geometry" />
        </mxCell>
        <mxCell id="wsR6Gxox6wflihYimQEe-13" value="cluster" style="endArrow=none;html=1;" parent="1" edge="1">
          <mxGeometry width="50" height="50" relative="1" as="geometry">
            <mxPoint x="40" y="488" as="sourcePoint" />
            <mxPoint x="440" y="488" as="targetPoint" />
          </mxGeometry>
        </mxCell>
        <mxCell id="wsR6Gxox6wflihYimQEe-14" value="Master" style="rounded=0;whiteSpace=wrap;html=1;" parent="1" vertex="1">
          <mxGeometry x="60" y="518" width="110" height="40" as="geometry" />
        </mxCell>
        <mxCell id="wsR6Gxox6wflihYimQEe-15" value="Backup" style="rounded=0;whiteSpace=wrap;html=1;" parent="1" vertex="1">
          <mxGeometry x="190" y="518" width="110" height="40" as="geometry" />
        </mxCell>
        <mxCell id="wsR6Gxox6wflihYimQEe-16" value="Log" style="rounded=0;whiteSpace=wrap;html=1;" parent="1" vertex="1">
          <mxGeometry x="320" y="330" width="110" height="40" as="geometry" />
        </mxCell>
        <mxCell id="wsR6Gxox6wflihYimQEe-17" value="Persistence" style="rounded=0;whiteSpace=wrap;html=1;" parent="1" vertex="1">
          <mxGeometry x="320" y="380" width="110" height="40" as="geometry" />
        </mxCell>
        <mxCell id="wsR6Gxox6wflihYimQEe-19" value="Callback" style="rounded=0;whiteSpace=wrap;html=1;" parent="1" vertex="1">
          <mxGeometry x="60" y="430" width="110" height="40" as="geometry" />
        </mxCell>
        <mxCell id="wsR6Gxox6wflihYimQEe-20" value="重复推送资源消耗,&lt;br&gt;&amp;nbsp;保存消息资源消耗" style="shape=callout;whiteSpace=wrap;html=1;perimeter=calloutPerimeter;" parent="1" vertex="1">
          <mxGeometry x="550" y="140" width="120" height="80" as="geometry" />
        </mxCell>
        <mxCell id="AmJx0hLOEgVv4BZ8C-zE-1" value="Scale" style="rounded=0;whiteSpace=wrap;html=1;" vertex="1" parent="1">
          <mxGeometry x="320" y="518" width="110" height="40" as="geometry" />
        </mxCell>
        <mxCell id="AmJx0hLOEgVv4BZ8C-zE-2" value="StreamProcess" style="rounded=0;whiteSpace=wrap;html=1;" vertex="1" parent="1">
          <mxGeometry x="60" y="570" width="110" height="40" as="geometry" />
        </mxCell>
        <mxCell id="AmJx0hLOEgVv4BZ8C-zE-4" value="ensure" style="shape=link;html=1;" edge="1" parent="1">
          <mxGeometry width="50" height="50" relative="1" as="geometry">
            <mxPoint x="470" y="580" as="sourcePoint" />
            <mxPoint x="470" y="280" as="targetPoint" />
            <Array as="points">
              <mxPoint x="470" y="440" />
            </Array>
          </mxGeometry>
        </mxCell>
        <mxCell id="AmJx0hLOEgVv4BZ8C-zE-5" value="MsgID" style="rounded=0;whiteSpace=wrap;html=1;" vertex="1" parent="1">
          <mxGeometry x="500" y="280" width="110" height="40" as="geometry" />
        </mxCell>
        <mxCell id="AmJx0hLOEgVv4BZ8C-zE-7" value="TimingWheel" style="rounded=0;whiteSpace=wrap;html=1;" vertex="1" parent="1">
          <mxGeometry x="190" y="430" width="110" height="40" as="geometry" />
        </mxCell>
        <mxCell id="AmJx0hLOEgVv4BZ8C-zE-9" value="LoadBalancer" style="rounded=0;whiteSpace=wrap;html=1;" vertex="1" parent="1">
          <mxGeometry x="320" y="430" width="110" height="40" as="geometry" />
        </mxCell>
      </root>
    </mxGraphModel>
  </diagram>
  <diagram id="mW7HWP9scXZkm8l7JMME" name="第 2 页">
    <mxGraphModel dx="744" dy="591" grid="1" gridSize="10" guides="1" tooltips="1" connect="1" arrows="1" fold="1" page="1" pageScale="1" pageWidth="827" pageHeight="1169" math="0" shadow="0">
      <root>
        <mxCell id="7rJfhLkzWEfWn79yOmgy-0" />
        <mxCell id="7rJfhLkzWEfWn79yOmgy-1" parent="7rJfhLkzWEfWn79yOmgy-0" />
        <mxCell id="7rJfhLkzWEfWn79yOmgy-12" value="&lt;span class=&quot;pl-s1&quot; style=&quot;box-sizing: border-box ; font-family: , &amp;#34;consolas&amp;#34; , &amp;#34;liberation mono&amp;#34; , &amp;#34;menlo&amp;#34; , monospace ; font-size: 12px ; cursor: url(&amp;#34;data:image/png;base64,iVBORw0KGgoAAAANSUhEUgAAADAAAAAwCAYAAABXAvmHAAAHSElEQVRoQ+1aa2iTVxh+3raJ1dZavLU6se1UnKLokG7DKbUDJ0ymBVHQCV6GG9M/A6dUcWut4AWMXbXF2iGbzm4/hOlYRzfnDZ0idYhTnFQ3L+1o6iW9rdZeomc8xy/xa9okX9J4A18IbZJzznee816f90QAQCmVAeA7AAP5PgKyT0Q+jMA6QZcQpdQiAKMBrGhpaUk4e/YsHj58GHSi7wARQVpaGlJSUvhVOYAtACpFpDbkxUKYQAD1AGIB9KqtrZWNGzfC7XaHsMSjoQQwa9YszJgxg29bATQB+FREvg95sRAmEEBbW1ub/fbt27h79y5KSkrw4MGDEJZ4DCAzMxOTJ09Gr169kJSUxC+WiMg3IS8WwgQNoLKy0l5YWIjW1lZ9klZl8ODBerzL5dJaU0rpqTSltWvXPl0ARUVFGoBVoZ9s2bJFA+Dc6upq71QCWLNmzfMPYMeOHYiKisLWrVtx8+bNFwsAzWXSpEl605WVlbh3796LBYC7pRkRCLVg9p0XwoQC+cpLAFYjCfOPJ4yGGoVeaiCEUw40VGvgypUr9uLi4qB5gA5rJUs/dR9ob2+319fXBy3iGC53796N3r17Bzy/pw3gbwDRxo5Y1CUTTHdZOQwAi0VkT4SspdtlaEKsfz0F0GQApTt37sTFixe7TAjDhAqM0vp3EXmc6QIgUkqlApjYzZA/ReS67+edKjel1LsAft2+fTsuXLjg9zFMXBajUAsAavh9Eamyogml1AcACrsZy9K8izZ9AbCY/yWQo9bV1YEAb9265Xc/LKUXLFiAESNGwG63/wtgIYAaAB0AqkXEb72ulFoM4GvWVk1NTejfvz+GDh3KTP+RiHwVTAOvA/jcNIhMbax5EgHk5+cHBEBTi42Nxbp168gLSO/+Y+UB4B8A00WkwR96D4CCggKcO3cO5BgLFy5ETEyMJQAxAOJNi68GkG3yEdDBCaC2NjBTZKSaM2cOEhISNBhqw2azsWQlhaVpNYrIFc+zlFLk4/TH9wDkkZ+cP38eGRkZmD9/vjUA5lNRStG8vgCQs3//fqmqqtIFW0dHh67929vbA5o0tcBIxr9DhgxBdnY2BgwYYJ5zHIDmn4YQ2JcA+vB9RAE4HA65fPmyTmJ82e12XYFalfj4eEyZMkVrYtCgQZg4cSK1cQPAj6Y1XgPwTnV1tY0nz+ZCTU1NZDSwbds2YVSiPSYnJ+Pw4cNobGy0un89jtpj+T1+/HgsW7bMbzI8ffq05uU8JI6PiAnl5+cLT4UPHjt2bFAnDuCgoDYYVQYOHIhFixZ5NVlRUYFTp05pH+PJU8MRA1BRUSEMm1R9XFxc2ABMDqs1uX79ei+A8vJyHDhwoBP2SADINcKqN19YCaNWbIvRaebMmV4md+nSJZ08PZ0NrtEjAFxAKTUUwCvGhhgd9tTV1aU4HA4dRqOjPSWUlS13HsONmhtoNBnf9XoMwCesJgKoaG5uHlVWVoaGhgbw1Nra2kLfvcUZTwSAUmoUcwFPMDc3Vze1noRwfQKYNm1aeInMd1NKKWbodYZJvQlgFLtvbEdGWrh51kAMGiNHjtTtm6ioqOClhJWNKKXoC6wWl6xatUoDsNlsVqZaGsPN0yzHjRuH1atZyXjlYxEp8V3EeiPUmKmUijMALD527Jg2oSNHjliimlYQMDrNnj0biYmJTHpstn5r3F38JSKP+5fGYuEAoAbyAbBuj3W5XNGM5zw1cwi0stkupymi80NOTg5Nhj1+Nms38SUijzrHPhIOANrLWwBe5aXI/fv300+ePKmj0tGjR4Py6u42QeDDhg3Ttk4NTJ06lfnhMIB9AMjEzvs7kJAB+IRWFmOz+BnzQl5eXliXIywQ09PTsXTpUl0DGVIsIp8E02RPAbwBYByAjU6nM2nDhg0hA2DyYsRhkUf+YLPZfjN87IaI+Oe14fpAN+GVJPyY0+lMNQMwNwBiYsiTOosnE7O83rx5s/7SKNH3igi5gSXpkQb4BKOL0AUAGdncuXO1RkpLS7vc/JA3z5s3T5vM6NFkrvgDwE8AzolImaXdm6mi1QlWNECz6Nu3L5gnyMp4cUgxNwtMzS9GGr54GfiZiJBuWpaIa6C5uRlZWVng/RmjCjVAdsUodfDgQc3KKCYAjPM/sFthRJyQrkgjAWA4gONOpzONPkBCsmnTJqSm0jUey/Xr17VG+vXrp6tOE4C1IsJYH5b0CIBSajmALABvO53OPgTAk6bJpKamsh+0wugFOZqamsacOXMGV69e1XU/ARoXgc8UQJHb7V5Otnbnzh3s2rVLc2UDAEl7pgHgZ7fbPYHaOXHiBA4dOvTcACh0uVwruGE6K8ts+kB3AKqqqiawRGB0ol88LybkBeAhNrytJE9ISUnppAEC4Ock9RT+pmLlypX895maUKHb7V5BE/L8QIR/2ciy2+2dALS2tk64du2alzZSE8OH0/+fMQAAy/yED3ajpxsxfi+AMX7GOUSEHbmw5H9bYTttkSgXZgAAAABJRU5ErkJggg==&amp;#34;) , auto&quot;&gt;&lt;span style=&quot;box-sizing: border-box&quot;&gt;chVal&lt;/span&gt;&lt;/span&gt;&lt;span style=&quot;box-sizing: border-box ; font-family: , &amp;#34;consolas&amp;#34; , &amp;#34;liberation mono&amp;#34; , &amp;#34;menlo&amp;#34; , monospace ; font-size: 12px&quot;&gt;.&lt;/span&gt;&lt;span class=&quot;pl-en&quot; style=&quot;box-sizing: border-box ; font-family: , &amp;#34;consolas&amp;#34; , &amp;#34;liberation mono&amp;#34; , &amp;#34;menlo&amp;#34; , monospace ; font-size: 12px ; cursor: url(&amp;#34;data:image/png;base64,iVBORw0KGgoAAAANSUhEUgAAADAAAAAwCAYAAABXAvmHAAAHSElEQVRoQ+1aa2iTVxh+3raJ1dZavLU6se1UnKLokG7DKbUDJ0ymBVHQCV6GG9M/A6dUcWut4AWMXbXF2iGbzm4/hOlYRzfnDZ0idYhTnFQ3L+1o6iW9rdZeomc8xy/xa9okX9J4A18IbZJzznee816f90QAQCmVAeA7AAP5PgKyT0Q+jMA6QZcQpdQiAKMBrGhpaUk4e/YsHj58GHSi7wARQVpaGlJSUvhVOYAtACpFpDbkxUKYQAD1AGIB9KqtrZWNGzfC7XaHsMSjoQQwa9YszJgxg29bATQB+FREvg95sRAmEEBbW1ub/fbt27h79y5KSkrw4MGDEJZ4DCAzMxOTJ09Gr169kJSUxC+WiMg3IS8WwgQNoLKy0l5YWIjW1lZ9klZl8ODBerzL5dJaU0rpqTSltWvXPl0ARUVFGoBVoZ9s2bJFA+Dc6upq71QCWLNmzfMPYMeOHYiKisLWrVtx8+bNFwsAzWXSpEl605WVlbh3796LBYC7pRkRCLVg9p0XwoQC+cpLAFYjCfOPJ4yGGoVeaiCEUw40VGvgypUr9uLi4qB5gA5rJUs/dR9ob2+319fXBy3iGC53796N3r17Bzy/pw3gbwDRxo5Y1CUTTHdZOQwAi0VkT4SspdtlaEKsfz0F0GQApTt37sTFixe7TAjDhAqM0vp3EXmc6QIgUkqlApjYzZA/ReS67+edKjel1LsAft2+fTsuXLjg9zFMXBajUAsAavh9Eamyogml1AcACrsZy9K8izZ9AbCY/yWQo9bV1YEAb9265Xc/LKUXLFiAESNGwG63/wtgIYAaAB0AqkXEb72ulFoM4GvWVk1NTejfvz+GDh3KTP+RiHwVTAOvA/jcNIhMbax5EgHk5+cHBEBTi42Nxbp168gLSO/+Y+UB4B8A00WkwR96D4CCggKcO3cO5BgLFy5ETEyMJQAxAOJNi68GkG3yEdDBCaC2NjBTZKSaM2cOEhISNBhqw2azsWQlhaVpNYrIFc+zlFLk4/TH9wDkkZ+cP38eGRkZmD9/vjUA5lNRStG8vgCQs3//fqmqqtIFW0dHh67929vbA5o0tcBIxr9DhgxBdnY2BgwYYJ5zHIDmn4YQ2JcA+vB9RAE4HA65fPmyTmJ82e12XYFalfj4eEyZMkVrYtCgQZg4cSK1cQPAj6Y1XgPwTnV1tY0nz+ZCTU1NZDSwbds2YVSiPSYnJ+Pw4cNobGy0un89jtpj+T1+/HgsW7bMbzI8ffq05uU8JI6PiAnl5+cLT4UPHjt2bFAnDuCgoDYYVQYOHIhFixZ5NVlRUYFTp05pH+PJU8MRA1BRUSEMm1R9XFxc2ABMDqs1uX79ei+A8vJyHDhwoBP2SADINcKqN19YCaNWbIvRaebMmV4md+nSJZ08PZ0NrtEjAFxAKTUUwCvGhhgd9tTV1aU4HA4dRqOjPSWUlS13HsONmhtoNBnf9XoMwCesJgKoaG5uHlVWVoaGhgbw1Nra2kLfvcUZTwSAUmoUcwFPMDc3Vze1noRwfQKYNm1aeInMd1NKKWbodYZJvQlgFLtvbEdGWrh51kAMGiNHjtTtm6ioqOClhJWNKKXoC6wWl6xatUoDsNlsVqZaGsPN0yzHjRuH1atZyXjlYxEp8V3EeiPUmKmUijMALD527Jg2oSNHjliimlYQMDrNnj0biYmJTHpstn5r3F38JSKP+5fGYuEAoAbyAbBuj3W5XNGM5zw1cwi0stkupymi80NOTg5Nhj1+Nms38SUijzrHPhIOANrLWwBe5aXI/fv300+ePKmj0tGjR4Py6u42QeDDhg3Ttk4NTJ06lfnhMIB9AMjEzvs7kJAB+IRWFmOz+BnzQl5eXliXIywQ09PTsXTpUl0DGVIsIp8E02RPAbwBYByAjU6nM2nDhg0hA2DyYsRhkUf+YLPZfjN87IaI+Oe14fpAN+GVJPyY0+lMNQMwNwBiYsiTOosnE7O83rx5s/7SKNH3igi5gSXpkQb4BKOL0AUAGdncuXO1RkpLS7vc/JA3z5s3T5vM6NFkrvgDwE8AzolImaXdm6mi1QlWNECz6Nu3L5gnyMp4cUgxNwtMzS9GGr54GfiZiJBuWpaIa6C5uRlZWVng/RmjCjVAdsUodfDgQc3KKCYAjPM/sFthRJyQrkgjAWA4gONOpzONPkBCsmnTJqSm0jUey/Xr17VG+vXrp6tOE4C1IsJYH5b0CIBSajmALABvO53OPgTAk6bJpKamsh+0wugFOZqamsacOXMGV69e1XU/ARoXgc8UQJHb7V5Otnbnzh3s2rVLc2UDAEl7pgHgZ7fbPYHaOXHiBA4dOvTcACh0uVwruGE6K8ts+kB3AKqqqiawRGB0ol88LybkBeAhNrytJE9ISUnppAEC4Ock9RT+pmLlypX895maUKHb7V5BE/L8QIR/2ciy2+2dALS2tk64du2alzZSE8OH0/+fMQAAy/yED3ajpxsxfi+AMX7GOUSEHbmw5H9bYTttkSgXZgAAAABJRU5ErkJggg==&amp;#34;) , auto&quot;&gt;&lt;span style=&quot;box-sizing: border-box&quot;&gt;Recv&lt;/span&gt;&lt;/span&gt;&lt;span style=&quot;box-sizing: border-box ; font-family: , &amp;#34;consolas&amp;#34; , &amp;#34;liberation mono&amp;#34; , &amp;#34;menlo&amp;#34; , monospace ; font-size: 12px&quot;&gt;(&lt;/span&gt;&lt;span style=&quot;box-sizing: border-box ; font-family: , &amp;#34;consolas&amp;#34; , &amp;#34;liberation mono&amp;#34; , &amp;#34;menlo&amp;#34; , monospace ; font-size: 12px&quot;&gt;&lt;span style=&quot;box-sizing: border-box&quot;&gt;)&lt;/span&gt;&lt;/span&gt;" style="edgeStyle=orthogonalEdgeStyle;rounded=0;orthogonalLoop=1;jettySize=auto;html=1;exitX=0.5;exitY=1;exitDx=0;exitDy=0;entryX=0.5;entryY=0;entryDx=0;entryDy=0;endArrow=open;endFill=0;dashed=1;" edge="1" parent="7rJfhLkzWEfWn79yOmgy-1" source="7rJfhLkzWEfWn79yOmgy-2" target="7rJfhLkzWEfWn79yOmgy-11">
          <mxGeometry relative="1" as="geometry" />
        </mxCell>
        <mxCell id="7rJfhLkzWEfWn79yOmgy-2" value="pub chan" style="shape=partialRectangle;whiteSpace=wrap;html=1;left=0;right=0;fillColor=none;" vertex="1" parent="7rJfhLkzWEfWn79yOmgy-1">
          <mxGeometry x="320" y="200" width="110" height="40" as="geometry" />
        </mxCell>
        <mxCell id="7rJfhLkzWEfWn79yOmgy-8" value="BindSendChan" style="edgeStyle=orthogonalEdgeStyle;rounded=0;orthogonalLoop=1;jettySize=auto;html=1;exitX=0.5;exitY=0;exitDx=0;exitDy=0;entryX=0;entryY=0.5;entryDx=0;entryDy=0;endArrow=open;endFill=0;" edge="1" parent="7rJfhLkzWEfWn79yOmgy-1" source="7rJfhLkzWEfWn79yOmgy-3" target="7rJfhLkzWEfWn79yOmgy-2">
          <mxGeometry relative="1" as="geometry" />
        </mxCell>
        <mxCell id="7rJfhLkzWEfWn79yOmgy-10" value="connnected" style="edgeStyle=orthogonalEdgeStyle;rounded=0;orthogonalLoop=1;jettySize=auto;html=1;exitX=0.5;exitY=1;exitDx=0;exitDy=0;endArrow=open;endFill=0;entryX=0;entryY=0.5;entryDx=0;entryDy=0;" edge="1" parent="7rJfhLkzWEfWn79yOmgy-1" source="7rJfhLkzWEfWn79yOmgy-3" target="7rJfhLkzWEfWn79yOmgy-11">
          <mxGeometry relative="1" as="geometry">
            <mxPoint x="185" y="350" as="targetPoint" />
          </mxGeometry>
        </mxCell>
        <mxCell id="7rJfhLkzWEfWn79yOmgy-3" value="EncodeConn" style="rounded=0;whiteSpace=wrap;html=1;" vertex="1" parent="7rJfhLkzWEfWn79yOmgy-1">
          <mxGeometry x="130" y="260" width="110" height="40" as="geometry" />
        </mxCell>
        <mxCell id="7rJfhLkzWEfWn79yOmgy-4" value="NetChan&lt;br&gt;&lt;a href=&quot;https://github.com/nats-io/nats.go/blob/master/netchan.go&quot;&gt;https://github.com/nats-io/nats.go/blob/master/netchan.go&lt;/a&gt;" style="text;html=1;strokeColor=none;fillColor=none;align=center;verticalAlign=middle;whiteSpace=wrap;rounded=0;" vertex="1" parent="7rJfhLkzWEfWn79yOmgy-1">
          <mxGeometry x="250" y="80" width="40" height="20" as="geometry" />
        </mxCell>
        <mxCell id="7rJfhLkzWEfWn79yOmgy-6" style="edgeStyle=orthogonalEdgeStyle;rounded=0;orthogonalLoop=1;jettySize=auto;html=1;exitX=0;exitY=0.5;exitDx=0;exitDy=0;entryX=1;entryY=0.5;entryDx=0;entryDy=0;endArrow=open;endFill=0;" edge="1" parent="7rJfhLkzWEfWn79yOmgy-1" source="7rJfhLkzWEfWn79yOmgy-5" target="7rJfhLkzWEfWn79yOmgy-2">
          <mxGeometry relative="1" as="geometry" />
        </mxCell>
        <mxCell id="7rJfhLkzWEfWn79yOmgy-5" value="msg" style="rounded=0;whiteSpace=wrap;html=1;" vertex="1" parent="7rJfhLkzWEfWn79yOmgy-1">
          <mxGeometry x="520" y="200" width="110" height="40" as="geometry" />
        </mxCell>
        <mxCell id="7rJfhLkzWEfWn79yOmgy-9" style="edgeStyle=orthogonalEdgeStyle;rounded=0;orthogonalLoop=1;jettySize=auto;html=1;exitX=0.5;exitY=1;exitDx=0;exitDy=0;endArrow=open;endFill=0;" edge="1" parent="7rJfhLkzWEfWn79yOmgy-1" source="7rJfhLkzWEfWn79yOmgy-3" target="7rJfhLkzWEfWn79yOmgy-3">
          <mxGeometry relative="1" as="geometry" />
        </mxCell>
        <mxCell id="7rJfhLkzWEfWn79yOmgy-13" value="&lt;meta charset=&quot;utf-8&quot;&gt;&lt;span class=&quot;pl-s1&quot; style=&quot;box-sizing: border-box; font-family: SFMono-Regular, Consolas, &amp;quot;Liberation Mono&amp;quot;, Menlo, monospace; font-size: 12px; font-style: normal; font-variant-ligatures: normal; font-variant-caps: normal; font-weight: 400; letter-spacing: normal; orphans: 2; text-align: start; text-indent: 0px; text-transform: none; widows: 2; word-spacing: 0px; -webkit-text-stroke-width: 0px; text-decoration-style: initial; text-decoration-color: initial; cursor: url(&amp;quot;data:image/png;base64,iVBORw0KGgoAAAANSUhEUgAAADAAAAAwCAYAAABXAvmHAAAHSElEQVRoQ+1aa2iTVxh+3raJ1dZavLU6se1UnKLokG7DKbUDJ0ymBVHQCV6GG9M/A6dUcWut4AWMXbXF2iGbzm4/hOlYRzfnDZ0idYhTnFQ3L+1o6iW9rdZeomc8xy/xa9okX9J4A18IbZJzznee816f90QAQCmVAeA7AAP5PgKyT0Q+jMA6QZcQpdQiAKMBrGhpaUk4e/YsHj58GHSi7wARQVpaGlJSUvhVOYAtACpFpDbkxUKYQAD1AGIB9KqtrZWNGzfC7XaHsMSjoQQwa9YszJgxg29bATQB+FREvg95sRAmEEBbW1ub/fbt27h79y5KSkrw4MGDEJZ4DCAzMxOTJ09Gr169kJSUxC+WiMg3IS8WwgQNoLKy0l5YWIjW1lZ9klZl8ODBerzL5dJaU0rpqTSltWvXPl0ARUVFGoBVoZ9s2bJFA+Dc6upq71QCWLNmzfMPYMeOHYiKisLWrVtx8+bNFwsAzWXSpEl605WVlbh3796LBYC7pRkRCLVg9p0XwoQC+cpLAFYjCfOPJ4yGGoVeaiCEUw40VGvgypUr9uLi4qB5gA5rJUs/dR9ob2+319fXBy3iGC53796N3r17Bzy/pw3gbwDRxo5Y1CUTTHdZOQwAi0VkT4SspdtlaEKsfz0F0GQApTt37sTFixe7TAjDhAqM0vp3EXmc6QIgUkqlApjYzZA/ReS67+edKjel1LsAft2+fTsuXLjg9zFMXBajUAsAavh9Eamyogml1AcACrsZy9K8izZ9AbCY/yWQo9bV1YEAb9265Xc/LKUXLFiAESNGwG63/wtgIYAaAB0AqkXEb72ulFoM4GvWVk1NTejfvz+GDh3KTP+RiHwVTAOvA/jcNIhMbax5EgHk5+cHBEBTi42Nxbp168gLSO/+Y+UB4B8A00WkwR96D4CCggKcO3cO5BgLFy5ETEyMJQAxAOJNi68GkG3yEdDBCaC2NjBTZKSaM2cOEhISNBhqw2azsWQlhaVpNYrIFc+zlFLk4/TH9wDkkZ+cP38eGRkZmD9/vjUA5lNRStG8vgCQs3//fqmqqtIFW0dHh67929vbA5o0tcBIxr9DhgxBdnY2BgwYYJ5zHIDmn4YQ2JcA+vB9RAE4HA65fPmyTmJ82e12XYFalfj4eEyZMkVrYtCgQZg4cSK1cQPAj6Y1XgPwTnV1tY0nz+ZCTU1NZDSwbds2YVSiPSYnJ+Pw4cNobGy0un89jtpj+T1+/HgsW7bMbzI8ffq05uU8JI6PiAnl5+cLT4UPHjt2bFAnDuCgoDYYVQYOHIhFixZ5NVlRUYFTp05pH+PJU8MRA1BRUSEMm1R9XFxc2ABMDqs1uX79ei+A8vJyHDhwoBP2SADINcKqN19YCaNWbIvRaebMmV4md+nSJZ08PZ0NrtEjAFxAKTUUwCvGhhgd9tTV1aU4HA4dRqOjPSWUlS13HsONmhtoNBnf9XoMwCesJgKoaG5uHlVWVoaGhgbw1Nra2kLfvcUZTwSAUmoUcwFPMDc3Vze1noRwfQKYNm1aeInMd1NKKWbodYZJvQlgFLtvbEdGWrh51kAMGiNHjtTtm6ioqOClhJWNKKXoC6wWl6xatUoDsNlsVqZaGsPN0yzHjRuH1atZyXjlYxEp8V3EeiPUmKmUijMALD527Jg2oSNHjliimlYQMDrNnj0biYmJTHpstn5r3F38JSKP+5fGYuEAoAbyAbBuj3W5XNGM5zw1cwi0stkupymi80NOTg5Nhj1+Nms38SUijzrHPhIOANrLWwBe5aXI/fv300+ePKmj0tGjR4Py6u42QeDDhg3Ttk4NTJ06lfnhMIB9AMjEzvs7kJAB+IRWFmOz+BnzQl5eXliXIywQ09PTsXTpUl0DGVIsIp8E02RPAbwBYByAjU6nM2nDhg0hA2DyYsRhkUf+YLPZfjN87IaI+Oe14fpAN+GVJPyY0+lMNQMwNwBiYsiTOosnE7O83rx5s/7SKNH3igi5gSXpkQb4BKOL0AUAGdncuXO1RkpLS7vc/JA3z5s3T5vM6NFkrvgDwE8AzolImaXdm6mi1QlWNECz6Nu3L5gnyMp4cUgxNwtMzS9GGr54GfiZiJBuWpaIa6C5uRlZWVng/RmjCjVAdsUodfDgQc3KKCYAjPM/sFthRJyQrkgjAWA4gONOpzONPkBCsmnTJqSm0jUey/Xr17VG+vXrp6tOE4C1IsJYH5b0CIBSajmALABvO53OPgTAk6bJpKamsh+0wugFOZqamsacOXMGV69e1XU/ARoXgc8UQJHb7V5Otnbnzh3s2rVLc2UDAEl7pgHgZ7fbPYHaOXHiBA4dOvTcACh0uVwruGE6K8ts+kB3AKqqqiawRGB0ol88LybkBeAhNrytJE9ISUnppAEC4Ock9RT+pmLlypX895maUKHb7V5BE/L8QIR/2ciy2+2dALS2tk64du2alzZSE8OH0/+fMQAAy/yED3ajpxsxfi+AMX7GOUSEHbmw5H9bYTttkSgXZgAAAABJRU5ErkJggg==&amp;quot;) 4 1, auto !important;&quot;&gt;&lt;span style=&quot;box-sizing: border-box;&quot;&gt;chVal&lt;/span&gt;&lt;/span&gt;&lt;span style=&quot;box-sizing: border-box; font-family: SFMono-Regular, Consolas, &amp;quot;Liberation Mono&amp;quot;, Menlo, monospace; font-size: 12px; font-style: normal; font-variant-ligatures: normal; font-variant-caps: normal; font-weight: 400; letter-spacing: normal; orphans: 2; text-align: start; text-indent: 0px; text-transform: none; widows: 2; word-spacing: 0px; -webkit-text-stroke-width: 0px; text-decoration-style: initial; text-decoration-color: initial;&quot;&gt;.&lt;/span&gt;&lt;span class=&quot;pl-en&quot; style=&quot;box-sizing: border-box; font-family: SFMono-Regular, Consolas, &amp;quot;Liberation Mono&amp;quot;, Menlo, monospace; font-size: 12px; font-style: normal; font-variant-ligatures: normal; font-variant-caps: normal; font-weight: 400; letter-spacing: normal; orphans: 2; text-align: start; text-indent: 0px; text-transform: none; widows: 2; word-spacing: 0px; -webkit-text-stroke-width: 0px; text-decoration-style: initial; text-decoration-color: initial; cursor: url(&amp;quot;data:image/png;base64,iVBORw0KGgoAAAANSUhEUgAAADAAAAAwCAYAAABXAvmHAAAHSElEQVRoQ+1aa2iTVxh+3raJ1dZavLU6se1UnKLokG7DKbUDJ0ymBVHQCV6GG9M/A6dUcWut4AWMXbXF2iGbzm4/hOlYRzfnDZ0idYhTnFQ3L+1o6iW9rdZeomc8xy/xa9okX9J4A18IbZJzznee816f90QAQCmVAeA7AAP5PgKyT0Q+jMA6QZcQpdQiAKMBrGhpaUk4e/YsHj58GHSi7wARQVpaGlJSUvhVOYAtACpFpDbkxUKYQAD1AGIB9KqtrZWNGzfC7XaHsMSjoQQwa9YszJgxg29bATQB+FREvg95sRAmEEBbW1ub/fbt27h79y5KSkrw4MGDEJZ4DCAzMxOTJ09Gr169kJSUxC+WiMg3IS8WwgQNoLKy0l5YWIjW1lZ9klZl8ODBerzL5dJaU0rpqTSltWvXPl0ARUVFGoBVoZ9s2bJFA+Dc6upq71QCWLNmzfMPYMeOHYiKisLWrVtx8+bNFwsAzWXSpEl605WVlbh3796LBYC7pRkRCLVg9p0XwoQC+cpLAFYjCfOPJ4yGGoVeaiCEUw40VGvgypUr9uLi4qB5gA5rJUs/dR9ob2+319fXBy3iGC53796N3r17Bzy/pw3gbwDRxo5Y1CUTTHdZOQwAi0VkT4SspdtlaEKsfz0F0GQApTt37sTFixe7TAjDhAqM0vp3EXmc6QIgUkqlApjYzZA/ReS67+edKjel1LsAft2+fTsuXLjg9zFMXBajUAsAavh9Eamyogml1AcACrsZy9K8izZ9AbCY/yWQo9bV1YEAb9265Xc/LKUXLFiAESNGwG63/wtgIYAaAB0AqkXEb72ulFoM4GvWVk1NTejfvz+GDh3KTP+RiHwVTAOvA/jcNIhMbax5EgHk5+cHBEBTi42Nxbp168gLSO/+Y+UB4B8A00WkwR96D4CCggKcO3cO5BgLFy5ETEyMJQAxAOJNi68GkG3yEdDBCaC2NjBTZKSaM2cOEhISNBhqw2azsWQlhaVpNYrIFc+zlFLk4/TH9wDkkZ+cP38eGRkZmD9/vjUA5lNRStG8vgCQs3//fqmqqtIFW0dHh67929vbA5o0tcBIxr9DhgxBdnY2BgwYYJ5zHIDmn4YQ2JcA+vB9RAE4HA65fPmyTmJ82e12XYFalfj4eEyZMkVrYtCgQZg4cSK1cQPAj6Y1XgPwTnV1tY0nz+ZCTU1NZDSwbds2YVSiPSYnJ+Pw4cNobGy0un89jtpj+T1+/HgsW7bMbzI8ffq05uU8JI6PiAnl5+cLT4UPHjt2bFAnDuCgoDYYVQYOHIhFixZ5NVlRUYFTp05pH+PJU8MRA1BRUSEMm1R9XFxc2ABMDqs1uX79ei+A8vJyHDhwoBP2SADINcKqN19YCaNWbIvRaebMmV4md+nSJZ08PZ0NrtEjAFxAKTUUwCvGhhgd9tTV1aU4HA4dRqOjPSWUlS13HsONmhtoNBnf9XoMwCesJgKoaG5uHlVWVoaGhgbw1Nra2kLfvcUZTwSAUmoUcwFPMDc3Vze1noRwfQKYNm1aeInMd1NKKWbodYZJvQlgFLtvbEdGWrh51kAMGiNHjtTtm6ioqOClhJWNKKXoC6wWl6xatUoDsNlsVqZaGsPN0yzHjRuH1atZyXjlYxEp8V3EeiPUmKmUijMALD527Jg2oSNHjliimlYQMDrNnj0biYmJTHpstn5r3F38JSKP+5fGYuEAoAbyAbBuj3W5XNGM5zw1cwi0stkupymi80NOTg5Nhj1+Nms38SUijzrHPhIOANrLWwBe5aXI/fv300+ePKmj0tGjR4Py6u42QeDDhg3Ttk4NTJ06lfnhMIB9AMjEzvs7kJAB+IRWFmOz+BnzQl5eXliXIywQ09PTsXTpUl0DGVIsIp8E02RPAbwBYByAjU6nM2nDhg0hA2DyYsRhkUf+YLPZfjN87IaI+Oe14fpAN+GVJPyY0+lMNQMwNwBiYsiTOosnE7O83rx5s/7SKNH3igi5gSXpkQb4BKOL0AUAGdncuXO1RkpLS7vc/JA3z5s3T5vM6NFkrvgDwE8AzolImaXdm6mi1QlWNECz6Nu3L5gnyMp4cUgxNwtMzS9GGr54GfiZiJBuWpaIa6C5uRlZWVng/RmjCjVAdsUodfDgQc3KKCYAjPM/sFthRJyQrkgjAWA4gONOpzONPkBCsmnTJqSm0jUey/Xr17VG+vXrp6tOE4C1IsJYH5b0CIBSajmALABvO53OPgTAk6bJpKamsh+0wugFOZqamsacOXMGV69e1XU/ARoXgc8UQJHb7V5Otnbnzh3s2rVLc2UDAEl7pgHgZ7fbPYHaOXHiBA4dOvTcACh0uVwruGE6K8ts+kB3AKqqqiawRGB0ol88LybkBeAhNrytJE9ISUnppAEC4Ock9RT+pmLlypX895maUKHb7V5BE/L8QIR/2ciy2+2dALS2tk64du2alzZSE8OH0/+fMQAAy/yED3ajpxsxfi+AMX7GOUSEHbmw5H9bYTttkSgXZgAAAABJRU5ErkJggg==&amp;quot;) 4 1, auto !important;&quot;&gt;&lt;span style=&quot;box-sizing: border-box;&quot;&gt;Send&lt;/span&gt;&lt;/span&gt;&lt;span style=&quot;box-sizing: border-box; font-family: SFMono-Regular, Consolas, &amp;quot;Liberation Mono&amp;quot;, Menlo, monospace; font-size: 12px; font-style: normal; font-variant-ligatures: normal; font-variant-caps: normal; font-weight: 400; letter-spacing: normal; orphans: 2; text-align: start; text-indent: 0px; text-transform: none; widows: 2; word-spacing: 0px; -webkit-text-stroke-width: 0px; text-decoration-style: initial; text-decoration-color: initial;&quot;&gt;(&lt;/span&gt;&lt;span class=&quot;pl-s1&quot; style=&quot;box-sizing: border-box; font-family: SFMono-Regular, Consolas, &amp;quot;Liberation Mono&amp;quot;, Menlo, monospace; font-size: 12px; font-style: normal; font-variant-ligatures: normal; font-variant-caps: normal; font-weight: 400; letter-spacing: normal; orphans: 2; text-align: start; text-indent: 0px; text-transform: none; widows: 2; word-spacing: 0px; -webkit-text-stroke-width: 0px; text-decoration-style: initial; text-decoration-color: initial; cursor: url(&amp;quot;data:image/png;base64,iVBORw0KGgoAAAANSUhEUgAAADAAAAAwCAYAAABXAvmHAAAHSElEQVRoQ+1aa2iTVxh+3raJ1dZavLU6se1UnKLokG7DKbUDJ0ymBVHQCV6GG9M/A6dUcWut4AWMXbXF2iGbzm4/hOlYRzfnDZ0idYhTnFQ3L+1o6iW9rdZeomc8xy/xa9okX9J4A18IbZJzznee816f90QAQCmVAeA7AAP5PgKyT0Q+jMA6QZcQpdQiAKMBrGhpaUk4e/YsHj58GHSi7wARQVpaGlJSUvhVOYAtACpFpDbkxUKYQAD1AGIB9KqtrZWNGzfC7XaHsMSjoQQwa9YszJgxg29bATQB+FREvg95sRAmEEBbW1ub/fbt27h79y5KSkrw4MGDEJZ4DCAzMxOTJ09Gr169kJSUxC+WiMg3IS8WwgQNoLKy0l5YWIjW1lZ9klZl8ODBerzL5dJaU0rpqTSltWvXPl0ARUVFGoBVoZ9s2bJFA+Dc6upq71QCWLNmzfMPYMeOHYiKisLWrVtx8+bNFwsAzWXSpEl605WVlbh3796LBYC7pRkRCLVg9p0XwoQC+cpLAFYjCfOPJ4yGGoVeaiCEUw40VGvgypUr9uLi4qB5gA5rJUs/dR9ob2+319fXBy3iGC53796N3r17Bzy/pw3gbwDRxo5Y1CUTTHdZOQwAi0VkT4SspdtlaEKsfz0F0GQApTt37sTFixe7TAjDhAqM0vp3EXmc6QIgUkqlApjYzZA/ReS67+edKjel1LsAft2+fTsuXLjg9zFMXBajUAsAavh9Eamyogml1AcACrsZy9K8izZ9AbCY/yWQo9bV1YEAb9265Xc/LKUXLFiAESNGwG63/wtgIYAaAB0AqkXEb72ulFoM4GvWVk1NTejfvz+GDh3KTP+RiHwVTAOvA/jcNIhMbax5EgHk5+cHBEBTi42Nxbp168gLSO/+Y+UB4B8A00WkwR96D4CCggKcO3cO5BgLFy5ETEyMJQAxAOJNi68GkG3yEdDBCaC2NjBTZKSaM2cOEhISNBhqw2azsWQlhaVpNYrIFc+zlFLk4/TH9wDkkZ+cP38eGRkZmD9/vjUA5lNRStG8vgCQs3//fqmqqtIFW0dHh67929vbA5o0tcBIxr9DhgxBdnY2BgwYYJ5zHIDmn4YQ2JcA+vB9RAE4HA65fPmyTmJ82e12XYFalfj4eEyZMkVrYtCgQZg4cSK1cQPAj6Y1XgPwTnV1tY0nz+ZCTU1NZDSwbds2YVSiPSYnJ+Pw4cNobGy0un89jtpj+T1+/HgsW7bMbzI8ffq05uU8JI6PiAnl5+cLT4UPHjt2bFAnDuCgoDYYVQYOHIhFixZ5NVlRUYFTp05pH+PJU8MRA1BRUSEMm1R9XFxc2ABMDqs1uX79ei+A8vJyHDhwoBP2SADINcKqN19YCaNWbIvRaebMmV4md+nSJZ08PZ0NrtEjAFxAKTUUwCvGhhgd9tTV1aU4HA4dRqOjPSWUlS13HsONmhtoNBnf9XoMwCesJgKoaG5uHlVWVoaGhgbw1Nra2kLfvcUZTwSAUmoUcwFPMDc3Vze1noRwfQKYNm1aeInMd1NKKWbodYZJvQlgFLtvbEdGWrh51kAMGiNHjtTtm6ioqOClhJWNKKXoC6wWl6xatUoDsNlsVqZaGsPN0yzHjRuH1atZyXjlYxEp8V3EeiPUmKmUijMALD527Jg2oSNHjliimlYQMDrNnj0biYmJTHpstn5r3F38JSKP+5fGYuEAoAbyAbBuj3W5XNGM5zw1cwi0stkupymi80NOTg5Nhj1+Nms38SUijzrHPhIOANrLWwBe5aXI/fv300+ePKmj0tGjR4Py6u42QeDDhg3Ttk4NTJ06lfnhMIB9AMjEzvs7kJAB+IRWFmOz+BnzQl5eXliXIywQ09PTsXTpUl0DGVIsIp8E02RPAbwBYByAjU6nM2nDhg0hA2DyYsRhkUf+YLPZfjN87IaI+Oe14fpAN+GVJPyY0+lMNQMwNwBiYsiTOosnE7O83rx5s/7SKNH3igi5gSXpkQb4BKOL0AUAGdncuXO1RkpLS7vc/JA3z5s3T5vM6NFkrvgDwE8AzolImaXdm6mi1QlWNECz6Nu3L5gnyMp4cUgxNwtMzS9GGr54GfiZiJBuWpaIa6C5uRlZWVng/RmjCjVAdsUodfDgQc3KKCYAjPM/sFthRJyQrkgjAWA4gONOpzONPkBCsmnTJqSm0jUey/Xr17VG+vXrp6tOE4C1IsJYH5b0CIBSajmALABvO53OPgTAk6bJpKamsh+0wugFOZqamsacOXMGV69e1XU/ARoXgc8UQJHb7V5Otnbnzh3s2rVLc2UDAEl7pgHgZ7fbPYHaOXHiBA4dOvTcACh0uVwruGE6K8ts+kB3AKqqqiawRGB0ol88LybkBeAhNrytJE9ISUnppAEC4Ock9RT+pmLlypX895maUKHb7V5BE/L8QIR/2ciy2+2dALS2tk64du2alzZSE8OH0/+fMQAAy/yED3ajpxsxfi+AMX7GOUSEHbmw5H9bYTttkSgXZgAAAABJRU5ErkJggg==&amp;quot;) 4 1, auto !important;&quot;&gt;&lt;span style=&quot;box-sizing: border-box;&quot;&gt;oPtr&lt;/span&gt;&lt;/span&gt;&lt;span style=&quot;box-sizing: border-box; font-family: SFMono-Regular, Consolas, &amp;quot;Liberation Mono&amp;quot;, Menlo, monospace; font-size: 12px; font-style: normal; font-variant-ligatures: normal; font-variant-caps: normal; font-weight: 400; letter-spacing: normal; orphans: 2; text-align: start; text-indent: 0px; text-transform: none; widows: 2; word-spacing: 0px; -webkit-text-stroke-width: 0px; text-decoration-style: initial; text-decoration-color: initial;&quot;&gt;)&lt;/span&gt;" style="edgeStyle=orthogonalEdgeStyle;rounded=0;orthogonalLoop=1;jettySize=auto;html=1;exitX=0.5;exitY=1;exitDx=0;exitDy=0;dashed=1;endArrow=open;endFill=0;" edge="1" parent="7rJfhLkzWEfWn79yOmgy-1" source="7rJfhLkzWEfWn79yOmgy-11" target="7rJfhLkzWEfWn79yOmgy-14">
          <mxGeometry relative="1" as="geometry">
            <mxPoint x="375" y="450" as="targetPoint" />
          </mxGeometry>
        </mxCell>
        <mxCell id="7rJfhLkzWEfWn79yOmgy-11" value="Nats Server" style="rounded=0;whiteSpace=wrap;html=1;" vertex="1" parent="7rJfhLkzWEfWn79yOmgy-1">
          <mxGeometry x="320" y="330" width="110" height="40" as="geometry" />
        </mxCell>
        <mxCell id="7rJfhLkzWEfWn79yOmgy-19" style="edgeStyle=orthogonalEdgeStyle;rounded=0;orthogonalLoop=1;jettySize=auto;html=1;exitX=0;exitY=0.5;exitDx=0;exitDy=0;endArrow=open;endFill=0;" edge="1" parent="7rJfhLkzWEfWn79yOmgy-1" source="7rJfhLkzWEfWn79yOmgy-14" target="7rJfhLkzWEfWn79yOmgy-20">
          <mxGeometry relative="1" as="geometry">
            <mxPoint x="230" y="480" as="targetPoint" />
          </mxGeometry>
        </mxCell>
        <mxCell id="7rJfhLkzWEfWn79yOmgy-14" value="sub chan" style="shape=partialRectangle;whiteSpace=wrap;html=1;left=0;right=0;fillColor=none;" vertex="1" parent="7rJfhLkzWEfWn79yOmgy-1">
          <mxGeometry x="320" y="460" width="110" height="40" as="geometry" />
        </mxCell>
        <mxCell id="7rJfhLkzWEfWn79yOmgy-15" value="connected" style="edgeStyle=orthogonalEdgeStyle;rounded=0;orthogonalLoop=1;jettySize=auto;html=1;exitX=0.5;exitY=0;exitDx=0;exitDy=0;entryX=1;entryY=0.5;entryDx=0;entryDy=0;endArrow=open;endFill=0;" edge="1" parent="7rJfhLkzWEfWn79yOmgy-1" source="7rJfhLkzWEfWn79yOmgy-17" target="7rJfhLkzWEfWn79yOmgy-11">
          <mxGeometry relative="1" as="geometry">
            <mxPoint x="450" y="405" as="targetPoint" />
          </mxGeometry>
        </mxCell>
        <mxCell id="7rJfhLkzWEfWn79yOmgy-16" value="&lt;span style=&quot;font-family: , &amp;#34;consolas&amp;#34; , &amp;#34;liberation mono&amp;#34; , &amp;#34;menlo&amp;#34; , monospace ; font-size: 12px&quot;&gt;BindRecvChan&lt;/span&gt;" style="edgeStyle=orthogonalEdgeStyle;rounded=0;orthogonalLoop=1;jettySize=auto;html=1;exitX=0.5;exitY=1;exitDx=0;exitDy=0;endArrow=open;endFill=0;entryX=1;entryY=0.5;entryDx=0;entryDy=0;" edge="1" parent="7rJfhLkzWEfWn79yOmgy-1" source="7rJfhLkzWEfWn79yOmgy-17" target="7rJfhLkzWEfWn79yOmgy-14">
          <mxGeometry relative="1" as="geometry">
            <mxPoint x="450" y="505" as="targetPoint" />
          </mxGeometry>
        </mxCell>
        <mxCell id="7rJfhLkzWEfWn79yOmgy-17" value="EncodeConn" style="rounded=0;whiteSpace=wrap;html=1;" vertex="1" parent="7rJfhLkzWEfWn79yOmgy-1">
          <mxGeometry x="520" y="390" width="110" height="40" as="geometry" />
        </mxCell>
        <mxCell id="7rJfhLkzWEfWn79yOmgy-18" style="edgeStyle=orthogonalEdgeStyle;rounded=0;orthogonalLoop=1;jettySize=auto;html=1;exitX=0.5;exitY=1;exitDx=0;exitDy=0;endArrow=open;endFill=0;" edge="1" parent="7rJfhLkzWEfWn79yOmgy-1" source="7rJfhLkzWEfWn79yOmgy-17" target="7rJfhLkzWEfWn79yOmgy-17">
          <mxGeometry relative="1" as="geometry" />
        </mxCell>
        <mxCell id="7rJfhLkzWEfWn79yOmgy-20" value="Actor" style="shape=umlActor;verticalLabelPosition=bottom;labelBackgroundColor=#ffffff;verticalAlign=top;html=1;outlineConnect=0;" vertex="1" parent="7rJfhLkzWEfWn79yOmgy-1">
          <mxGeometry x="180" y="450" width="30" height="60" as="geometry" />
        </mxCell>
        <mxCell id="7rJfhLkzWEfWn79yOmgy-21" value="I get msg from a channel" style="shape=callout;whiteSpace=wrap;html=1;perimeter=calloutPerimeter;" vertex="1" parent="7rJfhLkzWEfWn79yOmgy-1">
          <mxGeometry x="135" y="370" width="120" height="80" as="geometry" />
        </mxCell>
      </root>
    </mxGraphModel>
  </diagram>
</mxfile>
